# xmcd
#
# Track frame offsets: 
#        150
#        24212
#        39932
#        62951
#        72409
#        87600
#        107953
#        131531
#        175084
#        193953
#
# Disc length: 2753 seconds
#
# Revision: 0
# Processed by: cddbd v1.5.2PL0 Copyright (c) Steve Scherf et al.
# Submitted via: ExactAudioCopyFreeDBPlugin 1.0
#
DISCID=8d0abf0a
DTITLE=Paavo Pesonen - Past Comes Back To Haunt You
DYEAR=2018
DGENRE=Blues
TTITLE0=Maythorn
TTITLE1=Where Deep Waters Flow
TTITLE2=Coon Can Blues
TTITLE3=Cripple Creek
TTITLE4=Guitar Rag
TTITLE5=When The Soil Is Soft Again
TTITLE6=Amazing Grace
TTITLE7=Till Morning Clear
TTITLE8=A Man Ain't Nothing But A Man
TTITLE9=Dark Was The Night, Cold Was The Ground
EXTD=
EXTT0=
EXTT1=
EXTT2=
EXTT3=
EXTT4=
EXTT5=
EXTT6=
EXTT7=
EXTT8=
EXTT9=
PLAYORDER=
